<svg viewBox="0 0 253 447" fill="none" xmlns="http://www.w3.org/2000/svg">
  <path d="M21.02 234.351C6.39538 240.039 2.06212 260.757 1.72356 270.405H64.168C70.2422 208.226 112.992 197.244 143.356 197.244V206.595C88.9126 206.595 73.5566 254.059 72.6842 277.791C34.9923 277.791 26.9654 308.154 27.6634 323.335H193.612C179.101 377.49 128.236 391.967 104.617 392.437C96.067 392.786 78.9661 398.509 78.9661 418.612C78.9661 438.714 96.067 445.135 104.617 445.833C169.112 445.833 211.76 403.954 225.022 383.014C251.72 348.463 252.163 291.76 251.72 270.405C251.72 171.523 164.79 118.982 121.326 105.072V1.1748L73.3605 47.3142H48.963V1.1748L0.5 47.3142V174.281C0.5 197.782 14.18 224.12 21.02 234.351Z" fill="currentColor" stroke="currentColor"/>
  <path d="M94.1251 77.156C94.1251 84.6634 99.4292 89.2604 102.081 90.6204C85.9747 90.6204 80.5458 81.6441 79.8446 77.156H94.1251Z" fill="white" stroke="currentColor"/>
  <path d="M32.7703 77.156C32.7703 84.6634 38.0745 89.2604 40.7266 90.6204C24.62 90.6204 19.191 81.6441 18.4899 77.156H32.7703Z" fill="white" stroke="currentColor"/>
</svg>
