<svg viewBox="0 0 276 275" fill="none" xmlns="http://www.w3.org/2000/svg">
  <style>
    @keyframes blink {
      0%, 90%, 100% { transform: scaleY(1); }
      95% { transform: scaleY(0.05); }
    }
    .eye {
      transform-box: fill-box;
      transform-origin: center;
      animation: blink 4s ease-in-out infinite;
    }
  </style>
  <path d="M238.895 274.018H40.3724H0.5C0.5 208.124 6.993 183.832 40.3724 138.872C60.9381 111.171 104.168 81.7911 163.767 81.7911V1.20703L200.282 37.7217H238.895V1.20703L275.41 37.7217V233.306C275.41 259.16 260.316 274.018 238.895 274.018Z" fill="currentColor" stroke="currentColor"/>
  <path class="eye" d="M191.621 82.207C191.621 88.1365 197.943 92.3804 201.104 93.7612C186.825 95.6146 179.958 86.0584 178.977 82.207C177.233 82.207 186.716 64.1135 201.104 69.563C197.18 69.563 191.621 74.795 191.621 82.207Z" fill="white" stroke="currentColor"/>
  <path class="eye" d="M240.78 82.207C240.78 88.1365 247.102 92.3804 250.263 93.7612C235.984 95.6146 229.117 86.0584 228.136 82.207C226.392 82.207 235.875 64.1135 250.263 69.563C246.339 69.563 240.78 74.795 240.78 82.207Z" fill="white" stroke="currentColor"/>
</svg>