<svg viewBox="0 0 319 279" fill="none" xmlns="http://www.w3.org/2000/svg">
  <style>
    @keyframes blink {
      0%, 80%, 100% { transform: scaleY(1); }
      85% { transform: scaleY(0.05); }
      88% { transform: scaleY(1); }
      92% { transform: scaleY(0.05); }
      95% { transform: scaleY(1); }
    }
    .eye {
      transform-box: fill-box;
      transform-origin: center;
      animation: blink 4s ease-out infinite;
      animation-delay: 0.5s;
    }
  </style>
  <path d="M318.084 179.765V43.4436L266.858 75.694L216.668 42.4381V131.775C216.668 143.556 204.478 149.702 198.383 151.302V135.702C198.383 125.492 191.593 123.539 188.198 123.838H168.931V173.274H162.673V115.849H181.203C181.203 104.384 173.022 100.752 168.931 100.369H145.493V152.882H139.357V134.843C139.357 126.793 133.006 124.152 129.831 123.838H110.855V173.274H104.364V115.849H122.34C122.34 105.862 114.684 101.368 110.855 100.369H86.8868V151.302C66.913 151.302 66.913 121.342 66.913 121.342C66.913 84.9893 104.364 66.4136 133.326 66.4136C143.646 65.2485 164.086 56.926 163.287 32.9575C162.488 8.98888 142.98 1.33225 133.326 0.5C90.9814 0.5 63.4176 16.1462 54.9287 23.9692C13.7826 52.3321 1.4987 100.702 0.5 121.342V179.765C0.5 250.872 62.7517 274.974 93.8775 278.136H222.209C290.52 278.136 318.084 215.219 318.084 179.765Z" fill="currentColor" stroke="currentColor"/>
  <path class="eye" d="M256.907 106.791C249.418 87.8889 231.585 91.8119 231.585 91.8119C231.585 91.8119 242.463 97.6966 242.463 106.791H256.907Z" fill="white" stroke="currentColor"/>
  <path class="eye" d="M303.092 106.791C295.603 87.8889 277.771 91.8119 277.771 91.8119C277.771 91.8119 288.648 97.6966 288.648 106.791H303.092Z" fill="white" stroke="currentColor"/>
</svg>
