<svg xmlns="http://www.w3.org/2000/svg" version="1.1" xmlns:xlink="http://www.w3.org/1999/xlink" width="1000" height="1000"><metadata><rdf:RDF xmlns:rdf="http://www.w3.org/1999/02/22-rdf-syntax-ns#" xmlns:dc="http://purl.org/dc/elements/1.1/"><rdf:Description><dc:creator>RealFaviconGenerator</dc:creator><dc:source>https://realfavicongenerator.net</dc:source></rdf:Description></rdf:RDF></metadata><style>
    #light-icon {
      display: inline;
    }
    #dark-icon {
      display: none;
    }

    @media (prefers-color-scheme: dark) {
      #light-icon {
        display: none;
      }
      #dark-icon {
        display: inline;
      }
    }
  </style><g id="light-icon"><svg xmlns="http://www.w3.org/2000/svg" version="1.1" xmlns:xlink="http://www.w3.org/1999/xlink" width="1000" height="1000"><g><g transform="matrix(8.333333333333334,0,0,8.333333333333334,91.66666666666663,-5.684341886080802e-14)"><svg xmlns="http://www.w3.org/2000/svg" width="98" height="120" viewBox="0 0 98 120" fill="none"><path d="M0.5 119.431H97.3884V0.540527C72.8433 0.540527 66.7071 19.7837 66.7071 29.4052H31.585C31.585 8.25123 10.8617 1.34793 0.5 0.540527V119.431Z" fill="#002FA7" stroke="#002FA7"></path><path d="M31.9094 49.7563C23.1863 49.7563 18.4094 57.4409 17.1113 61.2832C17.7863 65.0736 21.6909 72.6544 31.9094 72.6544C42.1278 72.6544 46.344 65.0736 47.1748 61.2832C45.7209 57.4409 40.6325 49.7563 31.9094 49.7563Z" fill="#FAFBFD"></path><path d="M38.7385 72.6543C45.0616 72.6543 50.1875 67.5284 50.1875 61.2053C50.1875 54.8822 45.0616 49.7563 38.7385 49.7563C32.4154 49.7563 27.2896 54.8822 27.2896 61.2053C27.2896 67.5284 32.4154 72.6543 38.7385 72.6543Z" fill="#002FA7"></path><path d="M75.2473 49.7563C66.5242 49.7563 61.7473 57.4409 60.4492 61.2832C61.1242 65.0736 65.0288 72.6544 75.2473 72.6544C85.4657 72.6544 89.6819 65.0736 90.5126 61.2832C89.0588 57.4409 83.9703 49.7563 75.2473 49.7563Z" fill="#FAFBFD"></path><path d="M82.0764 72.6543C88.3995 72.6543 93.5254 67.5284 93.5254 61.2053C93.5254 54.8822 88.3995 49.7563 82.0764 49.7563C75.7533 49.7563 70.6274 54.8822 70.6274 61.2053C70.6274 67.5284 75.7533 72.6543 82.0764 72.6543Z" fill="#002FA7"></path></svg></g></g></svg></g><g id="dark-icon"><svg xmlns="http://www.w3.org/2000/svg" version="1.1" xmlns:xlink="http://www.w3.org/1999/xlink" width="1000" height="1000"><g clip-path="url(#SvgjsClipPath1066)"><rect width="1000" height="1000" fill="#ffffff"></rect><g transform="matrix(6.666666666666667,0,0,6.666666666666667,173.33333333333331,100)"><svg xmlns="http://www.w3.org/2000/svg" width="98" height="120" viewBox="0 0 98 120" fill="none"><path d="M0.5 119.431H97.3884V0.540527C72.8433 0.540527 66.7071 19.7837 66.7071 29.4052H31.585C31.585 8.25123 10.8617 1.34793 0.5 0.540527V119.431Z" fill="#002FA7" stroke="#002FA7"></path><path d="M31.9094 49.7563C23.1863 49.7563 18.4094 57.4409 17.1113 61.2832C17.7863 65.0736 21.6909 72.6544 31.9094 72.6544C42.1278 72.6544 46.344 65.0736 47.1748 61.2832C45.7209 57.4409 40.6325 49.7563 31.9094 49.7563Z" fill="#FAFBFD"></path><path d="M38.7385 72.6543C45.0616 72.6543 50.1875 67.5284 50.1875 61.2053C50.1875 54.8822 45.0616 49.7563 38.7385 49.7563C32.4154 49.7563 27.2896 54.8822 27.2896 61.2053C27.2896 67.5284 32.4154 72.6543 38.7385 72.6543Z" fill="#002FA7"></path><path d="M75.2473 49.7563C66.5242 49.7563 61.7473 57.4409 60.4492 61.2832C61.1242 65.0736 65.0288 72.6544 75.2473 72.6544C85.4657 72.6544 89.6819 65.0736 90.5126 61.2832C89.0588 57.4409 83.9703 49.7563 75.2473 49.7563Z" fill="#FAFBFD"></path><path d="M82.0764 72.6543C88.3995 72.6543 93.5254 67.5284 93.5254 61.2053C93.5254 54.8822 88.3995 49.7563 82.0764 49.7563C75.7533 49.7563 70.6274 54.8822 70.6274 61.2053C70.6274 67.5284 75.7533 72.6543 82.0764 72.6543Z" fill="#002FA7"></path></svg></g></g><defs><clipPath id="SvgjsClipPath1066"><rect width="1000" height="1000" x="0" y="0" rx="150" ry="150"></rect></clipPath></defs></svg></g></svg>